<?xml version="1.0" encoding="UTF-8"?>
<svg version="1.1" xmlns="http://www.w3.org/2000/svg" width="32" height="32">
<path d="M0 0 C2.87109375 1.52734375 2.87109375 1.52734375 5 3 C5.99 2.34 6.98 1.68 8 1 C10.59336988 7.80759594 10.69231563 14.79126352 10 22 C7.79186259 26.925845 4.89594362 29.72688332 0 32 C-5.5997712 32.75381535 -10.33499991 32.77303575 -15.5 30.375 C-20.3143755 25.80134327 -22.25156236 22.6912538 -22.5 16 C-22.25156236 9.3087462 -20.3143755 6.19865673 -15.5 1.625 C-10.43780554 -0.72530457 -5.49675939 -0.82118478 0 0 Z M6 5 C5.484375 5.6290625 4.96875 6.258125 4.4375 6.90625 C0.57511015 10.22394385 -3.77426592 10.30263604 -8.6875 11.09375 C-12.32099568 12.08781957 -13.70468059 13.06709187 -16 16 C-16.98333671 18.49675668 -16.98333671 18.49675668 -17 21 C-16.34 21.99 -15.68 22.98 -15 24 C-6.63938229 23.30328186 -0.57374514 20.27046329 5 14 C2.16699658 19.89264712 -0.10735288 22.16699658 -6 25 C-6 25.33 -6 25.66 -6 26 C1.02780336 26.41596001 1.02780336 26.41596001 7 23 C8.91762359 19.2299781 9.18330928 16.49165395 8.75 12.3125 C8.66234375 11.35988281 8.5746875 10.40726563 8.484375 9.42578125 C8.19921771 6.82924581 8.19921771 6.82924581 6 5 Z M-16 26 C-15 28 -15 28 -15 28 Z " fill="#6CB33E" transform="translate(22,0)"/>
</svg>
